<svg width="1200" height="630" viewBox="0 0 1200 630" fill="none" xmlns="http://www.w3.org/2000/svg">
  <defs>
    <radialGradient id="glow1" cx="0" cy="0" r="1" gradientUnits="userSpaceOnUse" gradientTransform="translate(260 180) rotate(45) scale(520 360)">
      <stop stop-color="#10B981" stop-opacity="0.34"/>
      <stop offset="1" stop-color="#10B981" stop-opacity="0"/>
    </radialGradient>
    <radialGradient id="glow2" cx="0" cy="0" r="1" gradientUnits="userSpaceOnUse" gradientTransform="translate(960 140) rotate(125) scale(540 400)">
      <stop stop-color="#38BDF6" stop-opacity="0.24"/>
      <stop offset="1" stop-color="#38BDF6" stop-opacity="0"/>
    </radialGradient>
    <linearGradient id="cursor" x1="170" y1="320" x2="278" y2="320" gradientUnits="userSpaceOnUse">
      <stop stop-color="#10B981"/>
      <stop offset="1" stop-color="#38BDF6"/>
    </linearGradient>
  </defs>
  <rect width="1200" height="630" fill="#0B0F14"/>
  <rect width="1200" height="630" fill="url(#glow1)"/>
  <rect width="1200" height="630" fill="url(#glow2)"/>
  <rect y="500" width="1200" height="130" fill="#111827" fill-opacity="0.46"/>
  <g opacity="0.18">
    <path d="M0 120H1200M0 240H1200M0 360H1200M0 480H1200M200 0V630M400 0V630M600 0V630M800 0V630M1000 0V630" stroke="#F2F4F7" stroke-opacity="0.16"/>
  </g>
  <g>
    <path d="M235 210H150C130.67 210 115 225.67 115 245V289C115 308.33 130.67 324 150 324H235" stroke="#F2F4F7" stroke-width="26" stroke-linecap="round" stroke-linejoin="round"/>
    <path d="M190 324H276" stroke="url(#cursor)" stroke-width="26" stroke-linecap="round"/>
  </g>
  <text x="336" y="270" fill="#F2F4F7" font-family="Space Grotesk, Inter, Segoe UI, Arial, sans-serif" font-size="66" font-weight="700" letter-spacing="16">CROHNOZ</text>
  <text x="340" y="348" fill="#10B981" font-family="Space Grotesk, Inter, Segoe UI, Arial, sans-serif" font-size="43" font-weight="600" letter-spacing="24">LABS</text>
  <text x="116" y="434" fill="#F2F4F7" font-family="Space Grotesk, Inter, Segoe UI, Arial, sans-serif" font-size="38" font-weight="700">Sistemas, automatización e infraestructura</text>
  <text x="116" y="486" fill="#94A3B8" font-family="Inter, Segoe UI, Arial, sans-serif" font-size="24" font-weight="500">para operaciones reales que necesitan orden, continuidad y herramientas útiles.</text>
  <text x="116" y="560" fill="#10B981" font-family="JetBrains Mono, Consolas, monospace" font-size="22" font-weight="700">&gt; crohnozlabs.cl</text>
</svg>
